<svg class="_Zy _0y" viewBox="0 0 64 72" fill="none" xmlns="http://www.w3.org/2000/svg"><path d="M28.1125 14.185C28.1125 6.52409 30.3869 0 31.9635 0C33.5402 0 35.8145 6.52409 35.8145 14.185V27.2002C35.8145 27.2002 57.2262 36.3932 60.3795 37.9254C63.3167 39.3525 63.518 40.7797 63.8504 43.1355C63.8876 43.3991 63.6569 43.6232 63.3949 43.5758C62.4669 43.408 61.1536 43.1638 59.585 42.8722L59.5846 42.8721C52.5408 41.5623 41.4035 39.295 35.8145 38.6915V50.1828C35.8145 51.8508 34.646 54.6124 34.3445 55.2974C34.298 55.4028 34.2622 55.5117 34.2387 55.6245L32.7337 62.8232L43.7995 68.149C44.3328 68.4056 44.6719 68.9452 44.6719 69.537V70.4408C44.6719 71.4384 43.7381 72.1729 42.7686 71.9379L32.384 69.4204L32.369 69.7041C32.3576 69.9197 32.1794 70.0887 31.9635 70.0887C31.7476 70.0887 31.5695 69.9197 31.558 69.7041L31.543 69.4204L21.1585 71.9379C20.1889 72.1729 19.2551 71.4384 19.2551 70.4408V69.537C19.2551 68.9452 19.5942 68.4056 20.1275 68.149L31.1933 62.8232L29.6884 55.6245C29.6648 55.5117 29.629 55.4028 29.5826 55.2974C29.281 54.6124 28.1125 51.8508 28.1125 50.1828V38.6915C22.5235 39.295 11.3862 41.5623 4.34242 42.8721C2.77362 43.1638 1.46024 43.408 0.532135 43.5758C0.270122 43.6232 0.0394482 43.3991 0.0766417 43.1355C0.40898 40.7797 0.61031 39.3525 3.54747 37.9254C6.70078 36.3932 28.1125 27.2002 28.1125 27.2002V14.185Z" fill="current" stroke="current"></path></svg>